<svg width="262" height="88" viewBox="0 0 262 88" fill="none" xmlns="http://www.w3.org/2000/svg">
<circle cx="43.6097" cy="43.6097" r="42.3493" stroke="#F47458" stroke-width="2.52073"/>
<path d="M40.9995 60.2118V71.0002H29.9995L29.9995 20.0002H40.9995V28.8272L40.9995 60.2118Z" fill="#F47458"/>
<path d="M38.9995 28.8032V20.0002C47.0477 20.6123 51.1254 22.0513 56.7773 28.8032C59.7948 33.7942 59.6852 36.5469 56.7773 41.4475C50.5298 48.2875 46.6107 49.8026 38.9995 48.65V41.4475C53.4716 36.4007 53.4716 31.539 38.9995 28.8032Z" fill="#F47458"/>
<path d="M34.9995 54.2855V47.0002C45.8645 47.5067 51.3694 48.6977 58.9995 54.2855C63.0732 58.4159 62.9252 60.694 58.9995 64.7497C50.5654 70.4104 45.2746 71.6642 34.9995 70.7104L34.9995 64.7497C54.5368 60.573 54.5368 56.5496 34.9995 54.2855Z" fill="#F47458"/>
<path d="M115.268 59.36C113.228 59.36 111.236 58.988 109.292 58.244C107.348 57.476 105.62 56.396 104.108 55.004L107.096 51.26C108.56 52.556 109.964 53.492 111.308 54.068C112.676 54.644 114.116 54.932 115.628 54.932C116.684 54.932 117.596 54.812 118.364 54.572C119.132 54.308 119.72 53.936 120.128 53.456C120.56 52.976 120.776 52.412 120.776 51.764C120.776 50.9 120.464 50.24 119.84 49.784C119.216 49.304 118.148 48.932 116.636 48.668L111.632 47.804C109.496 47.444 107.864 46.688 106.736 45.536C105.632 44.384 105.08 42.896 105.08 41.072C105.08 39.512 105.476 38.156 106.268 37.004C107.084 35.852 108.224 34.976 109.688 34.376C111.176 33.752 112.94 33.44 114.98 33.44C116.828 33.44 118.664 33.752 120.488 34.376C122.336 35 123.968 35.864 125.384 36.968L122.576 40.856C119.936 38.84 117.284 37.832 114.62 37.832C113.684 37.832 112.868 37.952 112.172 38.192C111.476 38.432 110.936 38.768 110.552 39.2C110.192 39.608 110.012 40.1 110.012 40.676C110.012 41.444 110.288 42.044 110.84 42.476C111.392 42.884 112.316 43.196 113.612 43.412L118.364 44.204C120.884 44.612 122.768 45.416 124.016 46.616C125.264 47.792 125.888 49.352 125.888 51.296C125.888 52.928 125.456 54.356 124.592 55.58C123.728 56.78 122.492 57.716 120.884 58.388C119.3 59.036 117.428 59.36 115.268 59.36ZM135.158 59.324C133.814 59.324 132.626 59.084 131.594 58.604C130.562 58.1 129.758 57.416 129.182 56.552C128.606 55.688 128.318 54.692 128.318 53.564C128.318 51.764 128.99 50.372 130.334 49.388C131.702 48.38 133.574 47.876 135.95 47.876C137.582 47.876 139.118 48.128 140.558 48.632V47.264C140.558 46.184 140.222 45.368 139.55 44.816C138.878 44.264 137.894 43.988 136.598 43.988C135.806 43.988 134.954 44.12 134.042 44.384C133.13 44.624 132.074 45.008 130.874 45.536L129.074 41.9C130.562 41.228 131.978 40.724 133.322 40.388C134.69 40.052 136.058 39.884 137.426 39.884C139.946 39.884 141.902 40.496 143.294 41.72C144.71 42.92 145.418 44.624 145.418 46.832V59H140.558V57.668C139.79 58.244 138.962 58.664 138.074 58.928C137.186 59.192 136.214 59.324 135.158 59.324ZM132.998 53.456C132.998 54.176 133.31 54.752 133.934 55.184C134.558 55.592 135.386 55.796 136.418 55.796C137.234 55.796 137.99 55.7 138.686 55.508C139.382 55.292 140.006 54.98 140.558 54.572V51.836C139.958 51.596 139.334 51.416 138.686 51.296C138.038 51.176 137.342 51.116 136.598 51.116C135.47 51.116 134.582 51.332 133.934 51.764C133.31 52.172 132.998 52.736 132.998 53.456ZM134.042 37.112L137.282 32.432H142.898L138.038 37.112H134.042ZM158.115 59.36C156.267 59.36 154.599 58.94 153.111 58.1C151.623 57.236 150.447 56.072 149.583 54.608C148.719 53.12 148.287 51.464 148.287 49.64C148.287 47.792 148.719 46.136 149.583 44.672C150.447 43.208 151.623 42.044 153.111 41.18C154.599 40.316 156.267 39.884 158.115 39.884C159.603 39.884 161.019 40.172 162.363 40.748C163.731 41.324 164.907 42.152 165.891 43.232L162.867 46.436C162.171 45.668 161.439 45.104 160.671 44.744C159.927 44.36 159.111 44.168 158.223 44.168C157.263 44.168 156.399 44.408 155.631 44.888C154.887 45.368 154.287 46.016 153.831 46.832C153.399 47.648 153.183 48.584 153.183 49.64C153.183 50.648 153.399 51.572 153.831 52.412C154.287 53.228 154.911 53.876 155.703 54.356C156.495 54.812 157.371 55.04 158.331 55.04C159.171 55.04 159.951 54.872 160.671 54.536C161.415 54.176 162.123 53.648 162.795 52.952L165.747 56.048C164.787 57.08 163.635 57.896 162.291 58.496C160.947 59.072 159.555 59.36 158.115 59.36ZM168.311 59V33.8L173.243 32.72V41.792C174.659 40.52 176.411 39.884 178.499 39.884C179.963 39.884 181.247 40.208 182.351 40.856C183.479 41.48 184.355 42.356 184.979 43.484C185.603 44.588 185.915 45.884 185.915 47.372V59H180.983V48.092C180.983 46.868 180.635 45.908 179.939 45.212C179.243 44.492 178.295 44.132 177.095 44.132C176.255 44.132 175.511 44.3 174.863 44.636C174.215 44.948 173.675 45.404 173.243 46.004V59H168.311ZM197.217 59V33.8H202.437V43.952H214.029V33.8H219.249V59H214.029V48.668H202.437V59H197.217ZM229.131 59.324C227.787 59.324 226.599 59.084 225.567 58.604C224.535 58.1 223.731 57.416 223.155 56.552C222.579 55.688 222.291 54.692 222.291 53.564C222.291 51.764 222.963 50.372 224.307 49.388C225.675 48.38 227.547 47.876 229.923 47.876C231.555 47.876 233.091 48.128 234.531 48.632V47.264C234.531 46.184 234.195 45.368 233.523 44.816C232.851 44.264 231.867 43.988 230.571 43.988C229.779 43.988 228.927 44.12 228.015 44.384C227.103 44.624 226.047 45.008 224.847 45.536L223.047 41.9C224.535 41.228 225.951 40.724 227.295 40.388C228.663 40.052 230.031 39.884 231.399 39.884C233.919 39.884 235.875 40.496 237.267 41.72C238.683 42.92 239.391 44.624 239.391 46.832V59H234.531V57.668C233.763 58.244 232.935 58.664 232.047 58.928C231.159 59.192 230.187 59.324 229.131 59.324ZM226.971 53.456C226.971 54.176 227.283 54.752 227.907 55.184C228.531 55.592 229.359 55.796 230.391 55.796C231.207 55.796 231.963 55.7 232.659 55.508C233.355 55.292 233.979 54.98 234.531 54.572V51.836C233.931 51.596 233.307 51.416 232.659 51.296C232.011 51.176 231.315 51.116 230.571 51.116C229.443 51.116 228.555 51.332 227.907 51.764C227.283 52.172 226.971 52.736 226.971 53.456ZM244.608 66.74C244.176 66.74 243.756 66.716 243.348 66.668C242.964 66.644 242.64 66.608 242.376 66.56V62.312C242.856 62.408 243.432 62.456 244.104 62.456C245.904 62.456 247.152 61.604 247.848 59.9L248.136 59.18L240.828 40.244H246.264L250.944 53.024L256.236 40.244H261.564L252.924 60.512C252.276 62.024 251.568 63.236 250.8 64.148C250.032 65.06 249.144 65.72 248.136 66.128C247.152 66.536 245.976 66.74 244.608 66.74Z" fill="#F47458"/>
</svg>
