<svg width="61" height="49" viewBox="0 0 61 49" fill="none" xmlns="http://www.w3.org/2000/svg">
<path d="M60.0627 5.95989C57.8708 6.93114 55.5162 7.58739 53.0408 7.88401C55.595 6.35572 57.5058 3.95036 58.4168 1.11676C56.0172 2.54211 53.3909 3.5454 50.6521 4.08301C48.8103 2.11653 46.3709 0.813119 43.7125 0.375132C41.054 -0.0628545 38.3254 0.389091 35.9501 1.6608C33.5748 2.93251 31.6859 4.95284 30.5765 7.40811C29.4671 9.86338 29.1994 12.6162 29.8148 15.2393C24.9525 14.9951 20.1959 13.7313 15.8536 11.5299C11.5113 9.32845 7.68043 6.23856 4.6096 2.46076C3.5596 4.27201 2.95585 6.37201 2.95585 8.60851C2.95468 10.6219 3.45048 12.6044 4.39928 14.3802C5.34807 16.156 6.72052 17.6701 8.39485 18.7883C6.45307 18.7265 4.55414 18.2018 2.8561 17.2579V17.4154C2.8559 20.2392 3.83268 22.9761 5.6207 25.1618C7.40872 27.3474 9.89785 28.8471 12.6657 29.4064C10.8644 29.8939 8.97586 29.9657 7.14272 29.6164C7.92365 32.0461 9.44484 34.1708 11.4933 35.6931C13.5418 37.2153 16.015 38.0589 18.5667 38.1056C14.235 41.5061 8.88543 43.3506 3.37847 43.3425C2.40297 43.3428 1.4283 43.2858 0.459473 43.1719C6.04935 46.766 12.5564 48.6734 19.202 48.666C41.6982 48.666 53.9963 30.0338 53.9963 13.8743C53.9963 13.3493 53.9832 12.819 53.9596 12.294C56.3517 10.5641 58.4166 8.42186 60.0575 5.96776L60.0627 5.95989Z" fill="#241400"/>
</svg>
