<svg width="63" height="43" viewBox="0 0 63 43" fill="none" xmlns="http://www.w3.org/2000/svg">
<path d="M61.6877 7.08071C61.3309 5.80819 60.6361 4.65612 59.6769 3.74696C58.6907 2.80984 57.4819 2.1395 56.1647 1.79921C51.2349 0.499833 31.4844 0.499833 31.4844 0.499833C23.2507 0.406154 15.0189 0.818179 6.83566 1.73358C5.5184 2.09902 4.31188 2.78434 3.32341 3.72858C2.35216 4.66308 1.64866 5.81546 1.28116 7.07808C0.398349 11.8339 -0.0305782 16.6629 0.000155262 21.4998C-0.0313447 26.3325 0.39653 31.1598 1.28116 35.9216C1.64078 37.179 2.34166 38.3261 3.31553 39.2527C4.28941 40.1793 5.50216 40.8487 6.83566 41.2031C11.831 42.4998 31.4844 42.4998 31.4844 42.4998C39.7286 42.5936 47.9709 42.1816 56.1647 41.2661C57.4819 40.9258 58.6907 40.2554 59.6769 39.3183C60.6482 38.3917 61.3385 37.2393 61.685 35.9846C62.5909 31.2306 63.0313 26.3996 63.0002 21.5602C63.0683 16.7003 62.6284 11.8466 61.6877 7.07808V7.08071ZM25.2054 30.4878V12.5145L41.6379 21.5025L25.2054 30.4878Z" fill="#241400"/>
</svg>
